<?xml version="1.0" encoding="utf-8"?>
<!-- Generator: Adobe Illustrator 27.2.0, SVG Export Plug-In . SVG Version: 6.00 Build 0)  -->
<svg version="1.1" id="Layer_1" xmlns="http://www.w3.org/2000/svg" xmlns:xlink="http://www.w3.org/1999/xlink" x="0px" y="0px"
	 viewBox="0 0 1104 1104" style="enable-background:new 0 0 1104 1104;" xml:space="preserve">
<style type="text/css">
	.st0{fill:none;stroke:#FFFFFF;stroke-width:2.0386;stroke-linecap:round;stroke-dasharray:0;}
	.st1{fill:#FFFFFF;}
	.st2{fill:none;stroke:#FFFFFF;stroke-width:2.0386;stroke-linecap:round;stroke-linejoin:round;}
	.st3{fill:none;stroke:#FFFFFF;stroke-width:3.3977;stroke-linecap:round;}
	.st4{fill:none;stroke:#FFFFFF;stroke-width:3.3977;stroke-linecap:round;stroke-linejoin:round;}
	.st5{fill:none;stroke:#FFFFFF;stroke-width:2.0386;stroke-linecap:round;stroke-dasharray:43.1777;}
	.st6{fill:none;stroke:#FFFFFF;stroke-width:2.0386;stroke-dasharray:70.2097;}
</style>
<g id="_x30_92122">
	<g id="flex-Company-Leadership-Revathi-Advaithi" transform="translate(-1125.000000, 489.000000)">
		<g id="short-banner-Burst-Simplified" transform="translate(0.000000, 137.000000)">
			<g id="Burst-Simplified" transform="translate(1125.000000, -626.000000)">
				<line id="Path" class="st0" x1="591.1" y1="188.4" x2="575.8" y2="404.5"/>
				<path id="Path_00000003817186226535018190000007519620691614890427_" class="st1" d="M587.4,188.4c0.1-1.5,1.1-2.8,2.5-3.3
					c1.4-0.5,3-0.1,4,1.1s1.2,2.8,0.5,4.1c-0.7,1.4-2.1,2.2-3.6,2.1C588.8,192.2,587.3,190.4,587.4,188.4L587.4,188.4z"/>
				<path id="Path_00000098189589303234178320000004689258479623109033_" class="st1" d="M572,404.1c-0.1,1.5,0.7,2.9,2.1,3.6
					c1.4,0.7,3,0.5,4.1-0.5c1.1-1,1.6-2.6,1.1-4c-0.5-1.4-1.8-2.5-3.3-2.6C574,400.4,572.2,402,572,404.1L572,404.1z"/>
				<line id="Path_00000143584663561850465260000017100152937695128979_" class="st0" x1="370" y1="234.9" x2="484.5" y2="418.7"/>
				<path id="Path_00000178166673433331728910000007638521389923686322_" class="st1" d="M366.9,237c-1.1-1.7-0.6-4,1.2-5.1
					c1.7-1.1,4-0.6,5.1,1.2c1.1,1.7,0.6,4-1.2,5.1c-0.8,0.5-1.9,0.7-2.8,0.5S367.4,237.8,366.9,237L366.9,237z"/>
				<path id="Path_00000155148379101283543820000013399587013616129685_" class="st1" d="M481.3,420.5c1.1,1.8,3.4,2.3,5.2,1.2
					c1.8-1.1,2.3-3.4,1.2-5.2c-1.1-1.8-3.4-2.3-5.2-1.2C480.7,416.5,480.2,418.8,481.3,420.5L481.3,420.5z"/>
				
					<line id="Path_00000168823992144297042680000003497290531652684931_" class="st0" x1="218.3" y1="402.4" x2="419.1" y2="483.8"/>
				<path id="Path_00000047031660479983830820000016959183471377227447_" class="st1" d="M217.1,405.9c-1.4-0.6-2.3-1.9-2.3-3.4
					c0-1.5,0.9-2.9,2.3-3.5c1.4-0.6,3-0.3,4.1,0.8c1.1,1.1,1.4,2.7,0.8,4.1C221.2,405.8,219,406.7,217.1,405.9z"/>
				<path id="Path_00000022550858894631788910000014525314047403851927_" class="st1" d="M417.5,487.2c1.9,0.8,4.1-0.2,4.9-2.1
					s-0.1-4.1-2.1-4.9c-1.9-0.8-4.1,0.1-4.9,2.1C414.7,484.2,415.6,486.4,417.5,487.2L417.5,487.2z"/>
				
					<line id="Path_00000015338879310357838750000001644680199690539924_" class="st0" x1="194.1" y1="627.1" x2="404.4" y2="574.9"/>
				<path id="Path_00000075859068155091310680000009564387283614327700_" class="st1" d="M195.2,630.7c-1.5,0.4-3-0.2-3.9-1.4
					c-0.9-1.2-1-2.8-0.2-4.1c0.8-1.3,2.3-2,3.8-1.8c1.5,0.2,2.7,1.3,3.1,2.8C198.4,628.2,197.2,630.2,195.2,630.7z"/>
				<path id="Path_00000020364913326256597470000011670794911407908245_" class="st1" d="M405.1,578.6c1.5-0.4,2.6-1.6,2.8-3.1
					c0.2-1.5-0.5-3-1.8-3.8c-1.3-0.8-2.9-0.7-4.2,0.2c-1.2,0.9-1.8,2.5-1.4,3.9C401.1,577.9,403.1,579.1,405.1,578.6z"/>
				
					<line id="Path_00000048468155256282971260000012187871162452061858_" class="st0" x1="306.6" y1="823.1" x2="446.1" y2="657.3"/>
				<path id="Path_00000000216403915394518730000000405071217235329939_" class="st1" d="M309.6,825.4c-1.3,1.6-3.7,1.8-5.3,0.4
					c-1.6-1.3-1.8-3.7-0.4-5.3c1.3-1.6,3.7-1.8,5.3-0.5c0.8,0.6,1.2,1.5,1.3,2.5C310.5,823.6,310.2,824.6,309.6,825.4L309.6,825.4z"
					/>
				<path id="Path_00000145758303645949275900000005124845869102647946_" class="st1" d="M448.8,659.9c1-1.2,1.2-2.8,0.5-4.2
					c-0.7-1.3-2.1-2.1-3.7-2c-1.5,0.1-2.8,1.2-3.3,2.6c-0.5,1.4,0,3,1.2,4C445.1,661.7,447.5,661.5,448.8,659.9L448.8,659.9z"/>
				
					<line id="Path_00000060718171937965249160000011861358461879608763_" class="st0" x1="512.8" y1="915.5" x2="528.2" y2="699.5"/>
				<path id="Path_00000085222815665983028430000006940018804350066320_" class="st1" d="M516.6,915.6c-0.1,2.1-1.9,3.6-4,3.5
					c-2.1-0.1-3.6-1.9-3.5-4s1.9-3.6,4-3.5c1,0.1,1.9,0.5,2.6,1.3C516.3,913.7,516.6,914.6,516.6,915.6L516.6,915.6z"/>
				<path id="Path_00000103231427320736705320000007479636486317294218_" class="st1" d="M531.9,699.9c0.1-2.1-1.4-3.9-3.5-4
					s-3.9,1.4-4,3.5c-0.1,2.1,1.4,3.9,3.5,4c1,0.1,2-0.3,2.7-0.9C531.4,701.8,531.9,700.9,531.9,699.9z"/>
				<line id="Path_00000003809937045639594500000005104870615266674306_" class="st0" x1="734" y1="869.1" x2="619.4" y2="685.3"/>
				<path id="Path_00000073713710583456585370000016799735515345263548_" class="st1" d="M737.1,867c0.8,1.3,0.7,2.9-0.1,4.1
					s-2.4,1.8-3.9,1.5c-1.5-0.3-2.6-1.5-2.8-3c-0.2-1.5,0.4-3,1.7-3.8c0.8-0.5,1.9-0.7,2.8-0.5C735.7,865.6,736.6,866.2,737.1,867
					L737.1,867z"/>
				<path id="Path_00000000213007328021146820000003223404168561621171_" class="st1" d="M622.7,683.4c-0.8-1.3-2.3-2-3.8-1.7
					c-1.5,0.2-2.7,1.4-3,2.9c-0.3,1.5,0.2,3,1.5,3.9s2.9,0.9,4.2,0.1C623.3,687.5,623.8,685.2,622.7,683.4z"/>
				
					<line id="Path_00000140714565878798977310000006360481833732593049_" class="st0" x1="885.7" y1="701.6" x2="684.9" y2="620.2"/>
				<path id="Path_00000143578955165279353660000009960328819511853208_" class="st1" d="M886.9,698c1.4,0.6,2.3,1.9,2.3,3.4
					c0,1.5-0.9,2.9-2.3,3.5c-1.4,0.6-3,0.3-4.1-0.8c-1.1-1.1-1.4-2.7-0.8-4.1C882.8,698.2,885,697.3,886.9,698L886.9,698z"/>
				<path id="Path_00000098922322737487591220000012737784700669550216_" class="st1" d="M686.5,616.8c-1.4-0.6-3-0.3-4.1,0.8
					c-1.1,1.1-1.4,2.7-0.8,4.1c0.6,1.4,2,2.3,3.5,2.3c1.5,0,2.9-0.9,3.5-2.3C689.3,619.7,688.4,617.6,686.5,616.8L686.5,616.8z"/>
				<line id="Path_00000161594900700360078300000016298324004211417006_" class="st0" x1="909.8" y1="476.9" x2="699.6" y2="529"/>
				<path id="Path_00000146470638575952407650000007239122096236862341_" class="st1" d="M908.8,473.3c1.5-0.4,3,0.2,3.9,1.4
					c0.9,1.2,1,2.8,0.2,4.1c-0.8,1.3-2.3,2-3.8,1.8c-1.5-0.2-2.7-1.3-3.1-2.8C905.6,475.8,906.8,473.8,908.8,473.3z"/>
				<path id="Path_00000086688807993171130920000013825610775586615684_" class="st1" d="M698.9,525.3c-1.5,0.4-2.6,1.6-2.8,3.1
					c-0.2,1.5,0.5,3,1.8,3.8c1.3,0.8,3,0.7,4.2-0.2c1.2-0.9,1.8-2.5,1.4-3.9C702.9,526.1,700.9,524.8,698.9,525.3L698.9,525.3z"/>
				
					<line id="Path_00000018238580828926038020000013540646233797089931_" class="st0" x1="797.4" y1="280.9" x2="657.9" y2="446.7"/>
				<path id="Path_00000041264468365323268330000014591408412786905531_" class="st1" d="M794.4,278.6c1.3-1.6,3.7-1.8,5.3-0.5
					c1.6,1.3,1.8,3.7,0.5,5.3s-3.7,1.8-5.3,0.5C793.3,282.6,793.1,280.2,794.4,278.6L794.4,278.6z"/>
				<path id="Path_00000091008207532976296590000006923168105745501590_" class="st1" d="M655.2,444.1c-1,1.2-1.2,2.8-0.5,4.2
					c0.7,1.4,2.1,2.1,3.7,2c1.5-0.1,2.8-1.2,3.3-2.6c0.5-1.5,0-3-1.2-4c-0.8-0.6-1.7-1-2.7-0.9S655.8,443.3,655.2,444.1z"/>
				
					<line id="Path_00000018942649696208219620000010186819492250818715_" class="st2" x1="177.5" y1="415.9" x2="272.4" y2="454.4"/>
				<path id="Path_00000083074346217296892030000008510106691956725893_" class="st1" d="M176.3,419.5c-1.4-0.6-2.3-1.9-2.3-3.4
					c0-1.5,0.9-2.9,2.3-3.5c1.4-0.6,3-0.3,4.1,0.8c1.1,1.1,1.4,2.7,0.8,4.1C180.4,419.3,178.2,420.3,176.3,419.5z"/>
				<path id="Path_00000155868377290485175690000017076328908566141344_" class="st1" d="M270.8,457.8c1.4,0.6,3,0.3,4.1-0.8
					s1.4-2.7,0.8-4.1c-0.6-1.4-2-2.3-3.5-2.3c-1.5,0-2.9,0.9-3.5,2.3C268,454.8,268.9,457,270.8,457.8L270.8,457.8z"/>
				
					<line id="Path_00000088114897139584079770000011740733021013798835_" class="st2" x1="153.8" y1="538.3" x2="255.9" y2="545.6"/>
				<path id="Path_00000120521383575021711040000016477073273889520560_" class="st1" d="M153.7,542.1c-1.5-0.1-2.8-1.1-3.3-2.5
					c-0.5-1.4,0-3,1.1-4c1.1-1,2.8-1.2,4.1-0.5c1.4,0.7,2.2,2.1,2.1,3.6C157.6,540.6,155.8,542.2,153.7,542.1L153.7,542.1z"/>
				<path id="Path_00000080902763050805898110000015375683328994281365_" class="st1" d="M255.4,549.3c2.1,0.1,3.9-1.4,4-3.5
					c0.1-2.1-1.4-3.9-3.5-4c-2.1-0.1-3.9,1.4-4,3.5c-0.1,1,0.3,2,0.9,2.7C253.5,548.8,254.5,549.2,255.4,549.3L255.4,549.3z"/>
				
					<line id="Path_00000103233166371580682550000008188805207780758162_" class="st2" x1="415.9" y1="926.4" x2="454.4" y2="831.6"/>
				<path id="Path_00000001643303473726201180000003482362720293538469_" class="st1" d="M419.5,927.7c-0.6,1.4-1.9,2.3-3.4,2.3
					c-1.5,0-2.9-0.9-3.5-2.3c-0.6-1.4-0.3-3,0.8-4.1c1.1-1.1,2.7-1.4,4.1-0.8C419.3,923.6,420.2,925.8,419.5,927.7L419.5,927.7z"/>
				<path id="Path_00000024684355188391050170000012861163285010864789_" class="st1" d="M457.8,833.2c0.6-1.4,0.3-3-0.8-4.1
					s-2.7-1.4-4.1-0.8c-1.4,0.6-2.3,2-2.3,3.5c0,1.5,0.9,2.9,2.3,3.5C454.8,836,457,835.1,457.8,833.2z"/>
				
					<line id="Path_00000150800797730516929930000007003372912344903814_" class="st2" x1="538.3" y1="950.2" x2="545.6" y2="848.1"/>
				<path id="Path_00000069358839728937571910000016929891499484433061_" class="st1" d="M542.1,950.2c-0.1,2.1-1.9,3.6-4,3.5
					c-2.1-0.1-3.6-1.9-3.5-4c0.1-2.1,1.9-3.6,4-3.5c1,0.1,1.9,0.5,2.6,1.3C541.8,948.3,542.1,949.2,542.1,950.2L542.1,950.2z"/>
				<path id="Path_00000061463946943700156730000003473256512348487348_" class="st1" d="M549.3,848.5c0.1-2.1-1.4-3.9-3.5-4
					c-2.1-0.1-3.9,1.4-4,3.5c-0.1,2.1,1.4,3.9,3.5,4c1,0.1,2-0.3,2.7-0.9C548.8,850.4,549.2,849.5,549.3,848.5z"/>
				<line id="Path_00000160149567838028375060000007512398659461791398_" class="st2" x1="662" y1="934.9" x2="637.4" y2="835.6"/>
				<path id="Path_00000173161619737594285990000005951397425540629408_" class="st1" d="M665.6,933.8c0.4,1.5-0.2,3-1.4,3.9
					c-1.2,0.9-2.8,1-4.1,0.2c-1.3-0.8-2-2.3-1.8-3.8c0.2-1.5,1.3-2.7,2.8-3.1C663.1,930.6,665.1,931.8,665.6,933.8z"/>
				<path id="Path_00000070114863297107152280000013363405476644817546_" class="st1" d="M641.1,834.8c-0.4-1.5-1.6-2.6-3.1-2.8
					c-1.5-0.2-3,0.5-3.8,1.8s-0.7,2.9,0.2,4.2c0.9,1.2,2.5,1.8,3.9,1.4C640.4,838.9,641.6,836.8,641.1,834.8L641.1,834.8z"/>
				
					<line id="Path_00000121241817126849442280000014396612297393327295_" class="st2" x1="565.7" y1="153.8" x2="558.4" y2="255.9"/>
				<path id="Path_00000145021514276777148020000002795411737056035509_" class="st1" d="M561.9,153.7c0.1-1.5,1.1-2.8,2.5-3.3
					c1.4-0.5,3,0,4,1.1c1,1.1,1.2,2.8,0.5,4.1c-0.7,1.4-2.1,2.2-3.6,2.1c-1-0.1-1.9-0.5-2.6-1.3
					C562.2,155.7,561.9,154.7,561.9,153.7L561.9,153.7z"/>
				<path id="Path_00000022549583236284799840000005951065656561429687_" class="st1" d="M554.7,255.4c-0.1,1.5,0.7,2.9,2.1,3.6
					s3,0.5,4.1-0.5c1.1-1,1.6-2.6,1.1-4c-0.5-1.4-1.8-2.5-3.3-2.6C556.6,251.8,554.8,253.4,554.7,255.4L554.7,255.4z"/>
				
					<line id="Path_00000178177871489700537560000015666373367259330988_" class="st2" x1="441.9" y1="169.1" x2="466.6" y2="268.4"/>
				<path id="Path_00000158027533337619067760000004137374826368288134_" class="st1" d="M438.3,170.2c-0.4-1.5,0.2-3,1.4-3.9
					c1.2-0.9,2.8-1,4.1-0.2c1.3,0.8,2,2.3,1.8,3.8c-0.2,1.5-1.3,2.7-2.8,3.1C440.9,173.4,438.8,172.2,438.3,170.2L438.3,170.2z"/>
				<path id="Path_00000147193027836088146090000009628289210862781095_" class="st1" d="M462.9,269.1c0.4,1.5,1.6,2.6,3.1,2.8
					c1.5,0.2,3-0.5,3.8-1.8c0.8-1.3,0.7-3-0.2-4.2c-0.9-1.2-2.5-1.8-3.9-1.4C463.6,265.1,462.4,267.1,462.9,269.1z"/>
				<line id="Path_00000113341027016681430640000009044172775539490452_" class="st2" x1="329" y1="221.8" x2="383.1" y2="308.7"/>
				<path id="Path_00000038384915566651946080000011038374091118803855_" class="st1" d="M325.9,224c-0.8-1.3-0.7-2.9,0.1-4.1
					s2.4-1.8,3.9-1.5c1.5,0.3,2.6,1.5,2.8,3c0.2,1.5-0.4,3-1.7,3.8c-0.8,0.5-1.9,0.7-2.8,0.5C327.3,225.4,326.5,224.8,325.9,224
					L325.9,224z"/>
				<path id="Path_00000071518435460233108020000001483616977471203459_" class="st1" d="M379.9,310.5c0.8,1.3,2.3,2,3.8,1.7
					c1.5-0.2,2.7-1.4,3-2.9c0.3-1.5-0.2-3-1.5-3.9c-1.2-0.9-2.9-0.9-4.2-0.1C379.3,306.4,378.8,308.7,379.9,310.5L379.9,310.5z"/>
				
					<line id="Path_00000103987754283219225030000000670541785310577059_" class="st2" x1="237.9" y1="306.9" x2="316.2" y2="372.8"/>
				<path id="Path_00000116922626727444348840000002043947920401498558_" class="st1" d="M235.6,309.9c-1.6-1.3-1.8-3.7-0.5-5.3
					c1.3-1.6,3.7-1.8,5.3-0.5s1.8,3.7,0.5,5.3C239.6,311,237.2,311.2,235.6,309.9z"/>
				<path id="Path_00000183219509032187125400000003688412729477631382_" class="st1" d="M313.7,375.5c1.6,1.3,4,1.1,5.3-0.5
					s1.1-4-0.5-5.3c-1.6-1.3-4-1.1-5.3,0.5c-0.6,0.8-1,1.7-0.9,2.7C312.4,374,312.9,374.9,313.7,375.5L313.7,375.5z"/>
				<line id="Path_00000029026618454679290870000016578319220480781706_" class="st2" x1="169.1" y1="662" x2="268.4" y2="637.4"/>
				<path id="Path_00000093164446220241371360000009043072838376822456_" class="st1" d="M170.2,665.6c-1.5,0.4-3-0.2-3.9-1.4
					c-0.9-1.2-1-2.8-0.2-4.1c0.8-1.3,2.3-2,3.8-1.8c1.5,0.2,2.7,1.3,3.1,2.8C173.4,663.1,172.2,665.1,170.2,665.6z"/>
				<path id="Path_00000006689291740841304550000015897663585197391769_" class="st1" d="M269.1,641.1c1.5-0.4,2.6-1.6,2.8-3.1
					c0.2-1.5-0.5-3-1.8-3.8c-1.3-0.8-2.9-0.7-4.2,0.2c-1.2,0.9-1.8,2.5-1.4,3.9C265.1,640.4,267.1,641.6,269.1,641.1L269.1,641.1z"
					/>
				<line id="Path_00000092443412358349054460000001797601301868263559_" class="st2" x1="221.8" y1="775" x2="308.7" y2="720.8"/>
				<path id="Path_00000008852316454685072420000008778286365892168584_" class="st1" d="M224,778c-1.7,1.1-4,0.6-5.1-1.2
					c-1.1-1.7-0.6-4,1.2-5.1c1.7-1.1,4-0.6,5.1,1.2c0.5,0.8,0.7,1.9,0.5,2.8S224.8,777.5,224,778z"/>
				<path id="Path_00000127748304085216189720000005341125725047571625_" class="st1" d="M310.5,724.1c1.3-0.8,2-2.3,1.7-3.8
					c-0.2-1.5-1.4-2.7-2.9-3c-1.5-0.3-3,0.2-3.9,1.5c-0.9,1.2-0.9,2.9-0.1,4.2C306.4,724.7,308.7,725.2,310.5,724.1L310.5,724.1z"/>
				
					<line id="Path_00000178198619021752136860000002108565991525061777_" class="st2" x1="306.9" y1="866.1" x2="372.8" y2="787.8"/>
				<path id="Path_00000070817067247298160070000016580549264619774090_" class="st1" d="M309.9,868.3c-1,1.2-2.5,1.6-4,1.2
					c-1.4-0.5-2.5-1.7-2.6-3.2c-0.1-1.5,0.7-2.9,2-3.6c1.3-0.7,3-0.5,4.1,0.5C311,864.4,311.2,866.8,309.9,868.3z"/>
				<path id="Path_00000007393260558779061800000014967988710779687066_" class="st1" d="M375.5,790.3c1.3-1.6,1.1-4-0.5-5.3
					c-1.6-1.3-4-1.1-5.3,0.5c-1.3,1.6-1.1,4,0.5,5.3c0.8,0.6,1.7,1,2.7,0.9C374,791.6,374.9,791.1,375.5,790.3z"/>
				<line id="Path_00000126281325052234072950000000510522855019306627_" class="st2" x1="775" y1="882.1" x2="720.8" y2="795.3"/>
				<path id="Path_00000174585618452642609050000003757240932400235690_" class="st1" d="M778,880c1.1,1.7,0.6,4-1.2,5.1
					s-4,0.6-5.1-1.2c-1.1-1.7-0.6-4,1.2-5.1C774.6,877.7,776.9,878.3,778,880z"/>
				<path id="Path_00000158722040295156183470000015854448001062444448_" class="st1" d="M724.1,793.5c-1.1-1.8-3.4-2.3-5.2-1.2
					c-1.8,1.1-2.3,3.4-1.2,5.2c1.1,1.8,3.4,2.3,5.2,1.2c0.8-0.5,1.4-1.4,1.7-2.3C724.8,795.3,724.7,794.3,724.1,793.5z"/>
				
					<line id="Path_00000026854819087552046540000018243043911592022686_" class="st2" x1="866.1" y1="797.1" x2="787.8" y2="731.2"/>
				<path id="Path_00000008847826500238295440000015109781449641189787_" class="st1" d="M868.3,794.1c1.2,1,1.6,2.5,1.2,4
					c-0.5,1.4-1.7,2.5-3.2,2.6c-1.5,0.1-2.9-0.7-3.6-2c-0.7-1.3-0.5-3,0.5-4.1C864.4,793,866.8,792.8,868.3,794.1z"/>
				<path id="Path_00000154423014493974363560000002954477600908963772_" class="st1" d="M790.3,728.5c-1.2-1-2.8-1.2-4.2-0.5
					c-1.3,0.7-2.1,2.1-2,3.7c0.1,1.5,1.2,2.8,2.6,3.3c1.4,0.5,3,0,4-1.2C792.1,732.2,791.9,729.8,790.3,728.5L790.3,728.5z"/>
				<line id="Path_00000057857547333564880040000017951790022153041811_" class="st2" x1="926.4" y1="688" x2="831.6" y2="649.6"/>
				<path id="Path_00000067219378552060561090000003440129155494421164_" class="st1" d="M927.7,684.5c1.4,0.6,2.3,1.9,2.3,3.4
					c0,1.5-0.9,2.9-2.3,3.5c-1.4,0.6-3,0.3-4.1-0.8c-1.1-1.1-1.4-2.7-0.8-4.1C923.6,684.6,925.8,683.7,927.7,684.5z"/>
				<path id="Path_00000138568545607883101920000006280692438833091987_" class="st1" d="M833.2,646.2c-1.4-0.6-3-0.3-4.1,0.8
					c-1.1,1.1-1.4,2.7-0.8,4.1c0.6,1.4,2,2.3,3.5,2.3s2.9-0.9,3.5-2.3C836,649.2,835.1,647,833.2,646.2z"/>
				
					<line id="Path_00000153691180262725623030000004557015999299524005_" class="st2" x1="950.2" y1="565.7" x2="848.1" y2="558.4"/>
				<path id="Path_00000093898240928658913760000000416991577887108760_" class="st1" d="M950.2,561.9c2.1,0.1,3.6,1.9,3.5,4
					c-0.1,2.1-1.9,3.6-4,3.5c-2.1-0.1-3.6-1.9-3.5-4c0.1-1,0.5-1.9,1.3-2.6C948.3,562.2,949.2,561.9,950.2,561.9L950.2,561.9z"/>
				<path id="Path_00000093888685415131502880000001038215501262463932_" class="st1" d="M848.5,554.7c-2.1-0.1-3.9,1.4-4,3.5
					c-0.1,2.1,1.4,3.9,3.5,4c2.1,0.1,3.9-1.4,4-3.5c0.1-1-0.3-2-0.9-2.7C850.4,555.2,849.5,554.7,848.5,554.7z"/>
				
					<line id="Path_00000166633235628869654500000009988904951858053002_" class="st2" x1="934.9" y1="441.9" x2="835.6" y2="466.6"/>
				<path id="Path_00000012441670551782580620000007730691037549757354_" class="st1" d="M933.8,438.3c1.5-0.4,3,0.2,3.9,1.4
					c0.9,1.2,1,2.8,0.2,4.1c-0.8,1.3-2.3,2-3.8,1.8c-1.5-0.2-2.7-1.3-3.1-2.8C930.6,440.9,931.8,438.8,933.8,438.3z"/>
				<path id="Path_00000103263401560902770650000010382340109994577062_" class="st1" d="M834.8,462.9c-1.5,0.4-2.6,1.6-2.8,3.1
					s0.5,3,1.8,3.8c1.3,0.8,3,0.7,4.2-0.2s1.8-2.5,1.4-3.9C838.9,463.6,836.8,462.4,834.8,462.9z"/>
				<line id="Path_00000133504166716189147280000010494472702999207587_" class="st2" x1="882.1" y1="329" x2="795.3" y2="383.1"/>
				<path id="Path_00000049942066202438562450000012424581883469019552_" class="st1" d="M880,325.9c1.3-0.8,2.9-0.7,4.1,0.1
					s1.8,2.4,1.5,3.9c-0.3,1.5-1.5,2.6-3,2.8s-3-0.4-3.8-1.7C877.7,329.3,878.3,327,880,325.9z"/>
				<path id="Path_00000015339747391172057590000012092245828654580908_" class="st1" d="M793.5,379.9c-1.8,1.1-2.3,3.4-1.2,5.2
					c1.1,1.8,3.4,2.3,5.2,1.2c1.8-1.1,2.3-3.4,1.2-5.2c-0.5-0.8-1.4-1.5-2.3-1.7C795.3,379.2,794.3,379.3,793.5,379.9L793.5,379.9z"
					/>
				
					<line id="Path_00000031918641298442948940000018250749227882758552_" class="st2" x1="797.1" y1="237.9" x2="731.2" y2="316.2"/>
				<path id="Path_00000142870211848436403790000000902078119943418006_" class="st1" d="M794.1,235.6c1.3-1.6,3.7-1.8,5.3-0.4
					s1.8,3.7,0.4,5.3s-3.7,1.8-5.3,0.5c-0.8-0.6-1.2-1.6-1.3-2.5C793.2,237.4,793.5,236.4,794.1,235.6z"/>
				<path id="Path_00000058573923480364897980000004641415954334453439_" class="st1" d="M728.5,313.7c-1,1.2-1.2,2.8-0.5,4.2
					c0.7,1.3,2.1,2.1,3.7,2s2.8-1.2,3.3-2.6s0-3-1.2-4C732.2,311.9,729.8,312.1,728.5,313.7L728.5,313.7z"/>
				<line id="Path_00000048459594395034401760000013593999598762628026_" class="st2" x1="688" y1="177.5" x2="649.6" y2="272.4"/>
				<path id="Path_00000176759806468097221550000001560738685221882522_" class="st1" d="M684.5,176.3c0.6-1.4,1.9-2.3,3.4-2.3
					c1.5,0,2.9,0.9,3.5,2.3c0.6,1.4,0.3,3-0.8,4.1c-1.1,1.1-2.7,1.4-4.1,0.8C684.6,180.4,683.7,178.2,684.5,176.3L684.5,176.3z"/>
				<path id="Path_00000177446133710805700710000007123500737130620839_" class="st1" d="M646.2,270.8c-0.6,1.4-0.3,3,0.8,4.1
					c1.1,1.1,2.7,1.4,4.1,0.8c1.4-0.6,2.3-2,2.3-3.5c0-1.5-0.9-2.9-2.3-3.5C649.2,268,647,268.9,646.2,270.8L646.2,270.8z"/>
				<line id="Path_00000078749686761824231570000010814424241470423438_" class="st0" x1="590.9" y1="3.5" x2="575.2" y2="224.3"/>
				<path id="Path_00000029750592472409824890000011732634259555617192_" class="st1" d="M587.2,3.4c0.2-2.1,1.9-3.6,4-3.4
					c2.1,0.2,3.6,1.9,3.4,4c-0.1,2.1-1.9,3.6-4,3.5c-1-0.1-1.9-0.5-2.6-1.3C587.4,5.4,587.1,4.4,587.2,3.4L587.2,3.4z"/>
				<path id="Path_00000037666913108665067640000006753302830452388525_" class="st1" d="M571.5,223.8c-0.1,2.1,1.4,3.9,3.5,4
					s3.9-1.4,4-3.5c0.1-2.1-1.4-3.9-3.5-4c-1-0.1-2,0.3-2.7,0.9C572,221.9,571.6,222.9,571.5,223.8z"/>
				<line id="Path_00000132058416039138074020000017052482253524104069_" class="st0" x1="419.5" y1="18.3" x2="472.8" y2="233.2"/>
				<path id="Path_00000029746601747174934310000008105194686863605411_" class="st1" d="M416,19.4c-0.4-1.5,0.2-3,1.4-3.9
					c1.2-0.9,2.8-1,4.1-0.2c1.3,0.8,2,2.3,1.8,3.8c-0.2,1.5-1.3,2.7-2.8,3.1c-1,0.2-2,0.1-2.8-0.4C416.8,21.2,416.2,20.4,416,19.4
					L416,19.4z"/>
				<path id="Path_00000081633459012645801330000003628342693886695056_" class="st1" d="M469.1,233.9c0.4,1.5,1.6,2.6,3.1,2.8
					c1.5,0.2,3-0.5,3.8-1.8c0.8-1.3,0.7-3-0.2-4.2c-0.9-1.2-2.5-1.8-3.9-1.4C469.8,229.8,468.6,231.9,469.1,233.9z"/>
				<line id="Path_00000093138557789151077330000005983148238292321429_" class="st0" x1="261.1" y1="85.4" x2="378.2" y2="273.2"/>
				<path id="Path_00000003077144859844058040000006733215030990911649_" class="st1" d="M258,87.5c-1.1-1.7-0.6-4,1.2-5.1
					c1.7-1.1,4-0.6,5.1,1.2c1.1,1.7,0.6,4-1.2,5.1c-0.8,0.5-1.9,0.7-2.8,0.5S258.6,88.4,258,87.5z"/>
				<path id="Path_00000114043365944379653090000010366390309491969974_" class="st1" d="M374.9,275.1c1.1,1.8,3.4,2.3,5.2,1.2
					c1.8-1.1,2.3-3.4,1.2-5.2c-1.1-1.8-3.4-2.3-5.2-1.2c-0.8,0.5-1.4,1.4-1.7,2.3S374.4,274.2,374.9,275.1z"/>
				
					<line id="Path_00000063611428485261741190000007939551683757438088_" class="st0" x1="131.2" y1="198.1" x2="300.5" y2="340.6"/>
				<path id="Path_00000176024483004713435760000014954406825188755113_" class="st1" d="M128.9,201.1c-1.2-1-1.6-2.5-1.2-4
					c0.5-1.4,1.7-2.5,3.2-2.6c1.5-0.1,2.9,0.7,3.6,2c0.7,1.3,0.5,3-0.5,4.1C132.8,202.2,130.5,202.4,128.9,201.1z"/>
				<path id="Path_00000170263311527483878710000009834610867587375282_" class="st1" d="M298,343.3c1.2,1,2.8,1.2,4.2,0.5
					c1.3-0.7,2.1-2.1,2-3.7s-1.2-2.8-2.6-3.3c-1.4-0.5-3,0-4,1.2C296.2,339.6,296.4,342,298,343.3L298,343.3z"/>
				<line id="Path_00000046297041505318690230000002120719629508345764_" class="st0" x1="42.4" y1="345.5" x2="247.5" y2="428.6"/>
				<path id="Path_00000072276256634906692450000011137074294034159504_" class="st1" d="M41.2,349c-1.4-0.6-2.3-1.9-2.3-3.4
					c0-1.5,0.9-2.9,2.3-3.5c1.4-0.6,3-0.3,4.1,0.8c1.1,1.1,1.4,2.7,0.8,4.1C45.2,348.9,43.1,349.8,41.2,349L41.2,349z"/>
				<path id="Path_00000079451652580932419450000007255539857865831075_" class="st1" d="M245.9,432c1.4,0.6,3,0.3,4.1-0.8
					c1.1-1.1,1.4-2.7,0.8-4.1c-0.6-1.4-2-2.3-3.5-2.3s-2.9,0.9-3.5,2.3C243.1,429.1,244,431.2,245.9,432z"/>
				<line id="Path_00000046329449653735441380000009619669281572572300_" class="st0" x1="3.5" y1="513.1" x2="224.3" y2="528.8"/>
				<path id="Path_00000019653996953027520260000011859725045596572575_" class="st1" d="M3.4,516.8c-2.1-0.2-3.6-1.9-3.4-4
					c0.2-2.1,1.9-3.6,4-3.4c2.1,0.1,3.6,1.9,3.5,4C7.3,515.4,5.5,516.9,3.4,516.8L3.4,516.8z"/>
				<path id="Path_00000022524209337738521930000015030790921872298906_" class="st1" d="M223.8,532.5c1.5,0.1,2.9-0.7,3.6-2.1
					c0.7-1.4,0.5-3-0.5-4.1s-2.6-1.6-4-1.1s-2.5,1.8-2.6,3.3C220.2,530.5,221.8,532.3,223.8,532.5L223.8,532.5z"/>
				<line id="Path_00000011752056705729048140000016727636666413016989_" class="st0" x1="18.3" y1="684.4" x2="233.2" y2="631.1"/>
				<path id="Path_00000121960840494001029140000014681129459135225758_" class="st1" d="M19.4,688c-1.5,0.4-3-0.2-3.9-1.4
					s-1-2.8-0.2-4.1c0.8-1.3,2.3-2,3.8-1.8c1.5,0.2,2.7,1.3,3.1,2.8C22.6,685.5,21.4,687.5,19.4,688L19.4,688z"/>
				<path id="Path_00000152948586419311699990000012172246109287705503_" class="st1" d="M233.9,634.8c1.5-0.4,2.6-1.6,2.8-3.1
					c0.2-1.5-0.5-3-1.8-3.8s-3-0.7-4.2,0.2c-1.2,0.9-1.8,2.5-1.4,3.9C229.8,634.1,231.9,635.3,233.9,634.8L233.9,634.8z"/>
				<line id="Path_00000026865933425554930570000004693105037651629729_" class="st0" x1="85.4" y1="842.9" x2="273.2" y2="725.8"/>
				<path id="Path_00000168110384410074592800000015582395665950410380_" class="st1" d="M87.5,845.9c-1.3,0.8-2.9,0.7-4.1-0.1
					c-1.2-0.9-1.8-2.4-1.5-3.9c0.3-1.5,1.5-2.6,3-2.8c1.5-0.2,3,0.4,3.8,1.7c0.5,0.8,0.7,1.9,0.5,2.8S88.4,845.4,87.5,845.9z"/>
				<path id="Path_00000120530811852287716500000004571855737192396429_" class="st1" d="M275.1,729.1c1.8-1.1,2.3-3.4,1.2-5.2
					c-1.1-1.8-3.4-2.3-5.2-1.2c-1.8,1.1-2.3,3.4-1.2,5.2c0.5,0.8,1.4,1.5,2.3,1.7C273.2,729.8,274.2,729.6,275.1,729.1z"/>
				
					<line id="Path_00000181057734320975014210000009819501859021751170_" class="st0" x1="198.1" y1="972.8" x2="340.6" y2="803.4"/>
				<path id="Path_00000144336872648689379500000016550672269472169652_" class="st1" d="M201.1,975.1c-1.3,1.6-3.7,1.8-5.3,0.5
					c-1.6-1.3-1.8-3.7-0.5-5.3c1.3-1.6,3.7-1.8,5.3-0.5c0.8,0.6,1.2,1.5,1.3,2.5C202,973.3,201.7,974.3,201.1,975.1L201.1,975.1z"/>
				<path id="Path_00000085224309455999978960000018193913942636398983_" class="st1" d="M343.3,806c1-1.2,1.2-2.8,0.5-4.2
					c-0.7-1.3-2.1-2.1-3.7-2s-2.8,1.2-3.3,2.6c-0.5,1.4,0,3,1.2,4C339.6,807.8,342,807.6,343.3,806L343.3,806z"/>
				
					<line id="Path_00000092438595124685373390000011024684749238794939_" class="st0" x1="345.5" y1="1061.6" x2="428.6" y2="856.5"/>
				<path id="Path_00000061436318056813777380000005811489133583646849_" class="st1" d="M349,1062.8c-0.6,1.4-1.9,2.3-3.4,2.3
					s-2.9-0.9-3.5-2.3c-0.6-1.4-0.3-3,0.8-4.1c1.1-1.1,2.7-1.4,4.1-0.8C348.9,1058.7,349.8,1060.9,349,1062.8z"/>
				<path id="Path_00000047761196846331276380000012328070562501592210_" class="st1" d="M432,858c0.6-1.4,0.3-3-0.8-4.1
					c-1.1-1.1-2.7-1.4-4.1-0.8c-1.4,0.6-2.3,2-2.3,3.5c0,1.5,0.9,2.9,2.3,3.5C429.1,860.9,431.2,859.9,432,858z"/>
				
					<line id="Path_00000089574704873511182140000014174059778987660218_" class="st0" x1="513.1" y1="1100.5" x2="528.8" y2="879.7"/>
				<path id="Path_00000042713943318942499590000003673083910280732071_" class="st1" d="M516.8,1100.5c-0.1,1.5-1.1,2.8-2.5,3.3
					c-1.4,0.5-3,0-4-1.1c-1-1.1-1.2-2.8-0.5-4.1c0.7-1.4,2.1-2.2,3.6-2.1C515.4,1096.7,516.9,1098.5,516.8,1100.5L516.8,1100.5z"/>
				<path id="Path_00000088848500957216234230000006060532872966299580_" class="st1" d="M532.5,880.1c0.1-1.5-0.7-2.9-2.1-3.6
					c-1.4-0.7-3-0.5-4.1,0.5s-1.6,2.6-1.1,4s1.8,2.5,3.3,2.6c1,0.1,2-0.3,2.7-0.9C532,882,532.4,881.1,532.5,880.1L532.5,880.1z"/>
				
					<line id="Path_00000023249877920921134890000015389647207163468984_" class="st0" x1="684.4" y1="1085.6" x2="631.1" y2="870.8"/>
				<path id="Path_00000089536146863182240420000000303908824406495919_" class="st1" d="M688,1084.6c0.4,1.5-0.2,3-1.4,3.9
					s-2.8,1-4.1,0.2c-1.3-0.8-2-2.3-1.8-3.8s1.3-2.7,2.8-3.1C685.5,1081.3,687.5,1082.6,688,1084.6L688,1084.6z"/>
				<path id="Path_00000044137516256389200190000013713656327937176989_" class="st1" d="M634.8,870.1c-0.4-1.5-1.6-2.6-3.1-2.8
					s-3,0.5-3.8,1.8c-0.8,1.3-0.7,3,0.2,4.2c0.9,1.2,2.5,1.8,3.9,1.4C634.1,874.1,635.3,872.1,634.8,870.1L634.8,870.1z"/>
				
					<line id="Path_00000141457031825079359340000018054186666211083680_" class="st0" x1="842.9" y1="1018.6" x2="725.8" y2="830.8"/>
				<path id="Path_00000134215349472293658530000003208635220612268164_" class="st1" d="M845.9,1016.5c0.8,1.3,0.7,2.9-0.1,4.1
					s-2.4,1.8-3.9,1.5c-1.5-0.3-2.6-1.5-2.8-3c-0.2-1.5,0.4-3,1.7-3.8C842.5,1014.2,844.8,1014.7,845.9,1016.5L845.9,1016.5z"/>
				<path id="Path_00000044877361941694359750000004390953401612437679_" class="st1" d="M729.1,828.9c-0.8-1.3-2.3-2-3.8-1.7
					s-2.7,1.4-3,2.9s0.2,3,1.5,3.9c1.2,0.9,2.9,0.9,4.2,0.1C729.6,833,730.2,830.7,729.1,828.9z"/>
				
					<line id="Path_00000147215632167321860970000007245324498935646081_" class="st0" x1="972.8" y1="905.9" x2="803.4" y2="763.4"/>
				<path id="Path_00000120541294595080228360000000130346551392864436_" class="st1" d="M975.1,902.9c1.6,1.3,1.8,3.7,0.5,5.3
					c-1.3,1.6-3.7,1.8-5.3,0.5c-1.6-1.3-1.8-3.7-0.5-5.3c0.6-0.8,1.5-1.2,2.5-1.3C973.3,901.9,974.3,902.3,975.1,902.9z"/>
				<path id="Path_00000017506134985173709990000008206032277904917689_" class="st1" d="M806,760.6c-1.2-1-2.8-1.2-4.2-0.5
					s-2.1,2.1-2,3.7s1.2,2.8,2.6,3.3c1.4,0.5,3,0,4-1.2c0.6-0.8,1-1.7,0.9-2.7S806.8,761.3,806,760.6L806,760.6z"/>
				
					<line id="Path_00000167387357211739371410000016129679028759351435_" class="st0" x1="1061.6" y1="758.5" x2="856.5" y2="675.4"/>
				<path id="Path_00000060742798385189517080000013791544928020113079_" class="st1" d="M1062.8,755c1.4,0.6,2.3,1.9,2.3,3.4
					s-0.9,2.9-2.3,3.5s-3,0.3-4.1-0.8c-1.1-1.1-1.4-2.7-0.8-4.1C1058.7,755.1,1060.9,754.2,1062.8,755L1062.8,755z"/>
				<path id="Path_00000020388616140181910460000004010327252543687595_" class="st1" d="M858,671.9c-1.4-0.6-3-0.3-4.1,0.8
					c-1.1,1.1-1.4,2.7-0.8,4.1c0.6,1.4,2,2.3,3.5,2.3c1.5,0,2.9-0.9,3.5-2.3C860.9,674.9,859.9,672.7,858,671.9L858,671.9z"/>
				
					<line id="Path_00000086658869835210620880000015691540583962837632_" class="st0" x1="1100.5" y1="590.9" x2="879.7" y2="575.2"/>
				<path id="Path_00000023984435592298930590000011204617084343916420_" class="st1" d="M1100.5,587.2c1.5,0.1,2.8,1.1,3.3,2.5
					c0.5,1.4,0,3-1.1,4c-1.1,1-2.8,1.2-4.1,0.5c-1.4-0.7-2.2-2.1-2.1-3.6c0.1-1,0.5-1.9,1.3-2.6
					C1098.6,587.4,1099.5,587.1,1100.5,587.2L1100.5,587.2z"/>
				<path id="Path_00000032647720273494674360000003443350084216921986_" class="st1" d="M880.1,571.5c-2.1-0.1-3.9,1.4-4,3.5
					c-0.1,2.1,1.4,3.9,3.5,4c2.1,0.1,3.9-1.4,4-3.5c0.1-1-0.3-2-0.9-2.7C882,572,881.1,571.6,880.1,571.5L880.1,571.5z"/>
				
					<line id="Path_00000171703024858110858970000017138062804513566593_" class="st0" x1="1085.6" y1="419.5" x2="870.8" y2="472.8"/>
				<path id="Path_00000123438547795166734430000007449446180469792143_" class="st1" d="M1084.6,416c2-0.5,4,0.7,4.5,2.7
					c0.5,2-0.7,4-2.7,4.5s-4-0.7-4.5-2.7C1081.3,418.5,1082.6,416.5,1084.6,416z"/>
				<path id="Path_00000013156236552740571120000005050847518287065258_" class="st1" d="M870.1,469.1c-1.5,0.4-2.6,1.6-2.8,3.1
					c-0.2,1.5,0.5,3,1.8,3.8c1.3,0.8,3,0.7,4.2-0.2s1.8-2.5,1.4-3.9C874.1,469.9,872.1,468.6,870.1,469.1L870.1,469.1z"/>
				
					<line id="Path_00000112604349450608039180000010442801526928909476_" class="st0" x1="1018.6" y1="261.1" x2="830.8" y2="378.2"/>
				<path id="Path_00000058578869839289026940000009379576867542444979_" class="st1" d="M1016.5,258c1.7-1.1,4-0.6,5.1,1.2
					s0.6,4-1.2,5.1c-1.7,1.1-4,0.6-5.1-1.2C1014.2,261.4,1014.7,259.1,1016.5,258L1016.5,258z"/>
				<path id="Path_00000022562205163843173230000007214086380422344097_" class="st1" d="M828.9,374.9c-1.3,0.8-2,2.3-1.7,3.8
					s1.4,2.7,2.9,3s3-0.2,3.9-1.5c0.9-1.2,0.9-2.9,0.1-4.2C833,374.3,830.7,373.8,828.9,374.9L828.9,374.9z"/>
				
					<line id="Path_00000073695461455392150180000011196369543698917009_" class="st0" x1="905.9" y1="131.2" x2="763.4" y2="300.5"/>
				<path id="Path_00000010281570489885667240000008887485143716352897_" class="st1" d="M902.9,128.9c1-1.2,2.5-1.6,4-1.2
					c1.4,0.5,2.5,1.7,2.6,3.2c0.1,1.5-0.7,2.9-2,3.6c-1.3,0.7-3,0.5-4.1-0.5C901.8,132.8,901.6,130.5,902.9,128.9L902.9,128.9z"/>
				<path id="Path_00000152946207003215501590000014423998573409952644_" class="st1" d="M760.6,298c-1,1.2-1.2,2.8-0.5,4.2
					c0.7,1.3,2.1,2.1,3.7,2s2.8-1.2,3.3-2.6c0.5-1.4,0-3-1.2-4C764.3,296.2,762,296.4,760.6,298L760.6,298z"/>
				<line id="Path_00000060741199100869214910000003255356194354937787_" class="st0" x1="758.5" y1="42.4" x2="675.4" y2="247.5"/>
				<path id="Path_00000060753313438126510310000017433144997219714711_" class="st1" d="M755,41.2c0.6-1.4,1.9-2.3,3.4-2.3
					c1.5,0,2.9,0.9,3.5,2.3c0.6,1.4,0.3,3-0.8,4.1c-1.1,1.1-2.7,1.4-4.1,0.8C755.1,45.2,754.2,43.1,755,41.2L755,41.2z"/>
				<path id="Path_00000163767873988775473860000000395075188407630495_" class="st1" d="M671.9,245.9c-0.6,1.4-0.3,3,0.8,4.1
					c1.1,1.1,2.7,1.4,4.1,0.8c1.4-0.6,2.3-2,2.3-3.5c0-1.5-0.9-2.9-2.3-3.5C674.9,243.1,672.7,244,671.9,245.9L671.9,245.9z"/>
				
					<line id="Path_00000149361867097065006350000016997263572594107821_" class="st2" x1="568.8" y1="315.5" x2="556.5" y2="487.4"/>
				<path id="Path_00000098182826380716446220000003586134005203971261_" class="st1" d="M565,315.2c0.1-1.5,1.1-2.8,2.5-3.3
					s3,0,4,1.1c1,1.1,1.2,2.8,0.5,4.1c-0.7,1.4-2.1,2.2-3.6,2.1C566.4,319,564.9,317.2,565,315.2z"/>
				<path id="Path_00000172422210271108943760000010320338618061956513_" class="st1" d="M552.8,487.1c-0.1,2.1,1.4,3.9,3.5,4
					c2.1,0.1,3.9-1.4,4-3.5c0.1-2.1-1.4-3.9-3.5-4c-1-0.1-2,0.3-2.7,0.9C553.3,485.2,552.9,486.2,552.8,487.1L552.8,487.1z"/>
				<path id="Path_00000119833446941831821480000009183771333314374540_" class="st1" d="M491.2,322.7c-0.4-1.5,0.2-3,1.4-3.9
					c1.2-0.9,2.8-1,4.1-0.2c1.3,0.8,2,2.3,1.8,3.8c-0.2,1.5-1.3,2.7-2.8,3.1C493.7,326,491.7,324.7,491.2,322.7z"/>
				<path id="Path_00000047782437198777293540000012222621475164759950_" class="st1" d="M532.7,490.1c0.4,1.5,1.6,2.6,3.1,2.8
					s3-0.5,3.8-1.8c0.8-1.3,0.7-3-0.2-4.2c-0.9-1.2-2.5-1.8-3.9-1.4C533.4,486,532.2,488.1,532.7,490.1L532.7,490.1z"/>
				
					<line id="Path_00000070820989950435664500000007847940113759785658_" class="st2" x1="426.5" y1="350.8" x2="517.7" y2="497.1"/>
				<path id="Path_00000000911772146039057350000002746873747370563240_" class="st1" d="M423.4,352.7c-0.8-1.3-0.7-2.9,0.1-4.1
					c0.9-1.2,2.4-1.8,3.9-1.5s2.6,1.5,2.8,3c0.2,1.5-0.4,3-1.7,3.8C426.7,355,424.4,354.5,423.4,352.7z"/>
				<path id="Path_00000023240804494940907870000004679333175794091192_" class="st1" d="M514.5,499.1c1.1,1.8,3.4,2.3,5.2,1.2
					c1.8-1.1,2.3-3.4,1.2-5.2c-1.1-1.8-3.4-2.3-5.2-1.2c-0.8,0.5-1.4,1.4-1.7,2.3S514,498.2,514.5,499.1z"/>
				<path id="Path_00000039127534437026361940000007888793386783263928_" class="st1" d="M368.1,402.2c-1.6-1.3-1.8-3.7-0.5-5.3
					c1.3-1.6,3.7-1.8,5.3-0.5s1.8,3.7,0.5,5.3c-0.6,0.8-1.5,1.2-2.5,1.3C369.8,403.2,368.8,402.9,368.1,402.2z"/>
				<path id="Path_00000103248229613951631820000000941951777145522849_" class="st1" d="M500,513.2c1.6,1.3,4,1.1,5.3-0.5
					c1.3-1.6,1.1-4-0.5-5.3c-1.6-1.3-4-1.1-5.3,0.5c-0.6,0.8-1,1.7-0.9,2.7C498.8,511.7,499.2,512.6,500,513.2L500,513.2z"/>
				<line id="Path_00000011027064251918276500000005542622928970043548_" class="st2" x1="332.2" y1="462.9" x2="492" y2="527.7"/>
				<path id="Path_00000104676417772129903660000001834748393673548455_" class="st1" d="M330.8,466.4c-1.4-0.6-2.3-1.9-2.3-3.4
					c0-1.5,0.9-2.9,2.3-3.5c1.4-0.6,3-0.3,4.1,0.8s1.4,2.7,0.8,4.1C334.9,466.3,332.7,467.2,330.8,466.4z"/>
				<path id="Path_00000067915982952327039420000004448522983498442900_" class="st1" d="M490.6,531.2c1.4,0.6,3,0.3,4.1-0.8
					c1.1-1.1,1.4-2.7,0.8-4.1c-0.6-1.4-2-2.3-3.5-2.3c-1.5,0-2.9,0.9-3.5,2.3C487.7,528.2,488.7,530.4,490.6,531.2L490.6,531.2z"/>
				<path id="Path_00000181802248648412278070000008759421600654123701_" class="st1" d="M315.2,538.9c-1.5-0.1-2.8-1.1-3.3-2.5
					c-0.5-1.4,0-3,1.1-4c1.1-1,2.8-1.2,4.1-0.5c1.4,0.7,2.2,2.1,2.1,3.6c-0.1,1-0.5,1.9-1.3,2.6C317.2,538.7,316.2,539,315.2,538.9
					L315.2,538.9z"/>
				<path id="Path_00000129175771135523484440000015698113853115972007_" class="st1" d="M487.1,551.2c1.5,0.1,2.9-0.7,3.6-2.1
					c0.7-1.4,0.5-3-0.5-4.1c-1-1.1-2.6-1.6-4-1.1c-1.4,0.5-2.5,1.8-2.6,3.3C483.5,549.2,485.1,551,487.1,551.2z"/>
				
					<line id="Path_00000015331970707817439090000007970493092874861476_" class="st2" x1="321.8" y1="609.1" x2="489.2" y2="567.6"/>
				<path id="Path_00000157992069805463830320000000405771694080710830_" class="st1" d="M322.7,612.8c-1.5,0.4-3-0.2-3.9-1.4
					s-1-2.8-0.2-4.1s2.3-2,3.8-1.8s2.7,1.3,3.1,2.8C326,610.2,324.7,612.3,322.7,612.8L322.7,612.8z"/>
				<path id="Path_00000176021196849188993200000008649329202629765290_" class="st1" d="M490.1,571.3c1.5-0.4,2.6-1.6,2.8-3.1
					s-0.5-3-1.8-3.8c-1.3-0.8-3-0.7-4.2,0.2c-1.2,0.9-1.8,2.5-1.4,3.9C486,570.5,488.1,571.8,490.1,571.3L490.1,571.3z"/>
				<path id="Path_00000124127536747060374010000012097006921522237109_" class="st1" d="M352.7,680.6c-1.3,0.8-2.9,0.7-4.1-0.1
					s-1.8-2.4-1.5-3.9c0.3-1.5,1.5-2.6,3-2.8s3,0.4,3.8,1.7C355,677.2,354.5,679.5,352.7,680.6z"/>
				<path id="Path_00000155867877816496143700000009379259111293438896_" class="st1" d="M499.1,589.5c1.8-1.1,2.3-3.4,1.2-5.2
					c-1.1-1.8-3.4-2.3-5.2-1.2c-1.8,1.1-2.3,3.4-1.2,5.2c0.5,0.8,1.4,1.4,2.3,1.7C497.2,590.2,498.2,590,499.1,589.5z"/>
				
					<line id="Path_00000152251552518441535860000010673553056146241436_" class="st2" x1="399.4" y1="733.5" x2="510.4" y2="601.6"/>
				<path id="Path_00000026162289872329107770000000666888478769417905_" class="st1" d="M402.2,735.9c-1,1.2-2.5,1.6-4,1.2
					c-1.4-0.5-2.5-1.7-2.6-3.2c-0.1-1.5,0.7-2.9,2-3.6c1.3-0.7,3-0.5,4.1,0.5C403.4,732,403.6,734.3,402.2,735.9z"/>
				<path id="Path_00000075154330850724345440000013641323147777614981_" class="st1" d="M513.2,604c1.3-1.6,1.1-4-0.5-5.3
					c-1.6-1.3-4-1.1-5.3,0.5c-1.3,1.6-1.1,4,0.5,5.3c0.8,0.6,1.7,1,2.7,0.9C511.7,605.2,512.6,604.7,513.2,604z"/>
				<path id="Path_00000096028094987870902350000006442673041290606983_" class="st1" d="M466.4,773.2c-0.6,1.4-1.9,2.3-3.4,2.3
					c-1.5,0-2.9-0.9-3.5-2.3c-0.6-1.4-0.3-3,0.8-4.1c1.1-1.1,2.7-1.4,4.1-0.8C466.3,769.1,467.2,771.3,466.4,773.2z"/>
				<path id="Path_00000080927112747975777730000017901660526937717428_" class="st1" d="M531.2,613.4c0.6-1.4,0.3-3-0.8-4.1
					c-1.1-1.1-2.7-1.4-4.1-0.8c-1.4,0.6-2.3,2-2.3,3.5c0,1.5,0.9,2.9,2.3,3.5C528.2,616.2,530.4,615.3,531.2,613.4L531.2,613.4z"/>
				
					<line id="Path_00000008846544447322916040000002162150641156906371_" class="st2" x1="535.2" y1="788.5" x2="547.4" y2="616.6"/>
				<path id="Path_00000005257705628834622200000018208387555887536310_" class="st1" d="M538.9,788.8c-0.1,2.1-1.9,3.6-4,3.5
					c-2.1-0.1-3.6-1.9-3.5-4c0.1-2.1,1.9-3.6,4-3.5c1,0.1,1.9,0.5,2.6,1.3C538.7,786.8,539,787.8,538.9,788.8L538.9,788.8z"/>
				<path id="Path_00000180363257023205864890000004113656816371375024_" class="st1" d="M551.2,616.8c0.1-1.5-0.7-2.9-2.1-3.6
					s-3-0.5-4.1,0.5c-1.1,1-1.6,2.6-1.1,4c0.5,1.4,1.8,2.5,3.3,2.6C549.2,620.5,551,618.9,551.2,616.8z"/>
				<path id="Path_00000078035866006515416790000001277830631819861685_" class="st1" d="M612.8,781.2c0.4,1.5-0.2,3-1.4,3.9
					s-2.8,1-4.1,0.2c-1.3-0.8-2-2.3-1.8-3.8s1.3-2.7,2.8-3.1C610.2,778,612.3,779.2,612.8,781.2L612.8,781.2z"/>
				<path id="Path_00000051341595846996896480000011230720601799214225_" class="st1" d="M571.3,613.9c-0.4-1.5-1.6-2.6-3.1-2.8
					c-1.5-0.2-3,0.5-3.8,1.8c-0.8,1.3-0.7,3,0.2,4.2c0.9,1.2,2.5,1.8,3.9,1.4C570.6,617.9,571.8,615.9,571.3,613.9L571.3,613.9z"/>
				
					<line id="Path_00000130643612263249765230000008437531226773399222_" class="st2" x1="677.5" y1="753.2" x2="586.3" y2="606.9"/>
				<path id="Path_00000066484024794853069140000016087316086807571633_" class="st1" d="M680.6,751.2c0.8,1.3,0.7,2.9-0.1,4.1
					c-0.9,1.2-2.4,1.8-3.9,1.5c-1.5-0.3-2.6-1.5-2.8-3c-0.2-1.5,0.4-3,1.7-3.8c0.8-0.5,1.9-0.7,2.8-0.5S680.1,750.4,680.6,751.2z"/>
				<path id="Path_00000149354686465142185820000009972732551085052840_" class="st1" d="M589.5,604.9c-1.1-1.8-3.4-2.3-5.2-1.2
					c-1.8,1.1-2.3,3.4-1.2,5.2c1.1,1.8,3.4,2.3,5.2,1.2C590,609,590.5,606.7,589.5,604.9L589.5,604.9z"/>
				<path id="Path_00000021805835038915926370000009038440712600025501_" class="st1" d="M735.9,701.7c1.2,1,1.6,2.5,1.2,4
					c-0.5,1.4-1.7,2.5-3.2,2.6c-1.5,0.1-2.9-0.7-3.6-2c-0.7-1.3-0.5-3,0.5-4.1C732,700.6,734.3,700.4,735.9,701.7z"/>
				<path id="Path_00000056417432500445229320000005061456150825703343_" class="st1" d="M604,590.7c-1.2-1-2.8-1.2-4.2-0.5
					c-1.3,0.7-2.1,2.1-2,3.7s1.2,2.8,2.6,3.3c1.4,0.5,3,0,4-1.2C605.8,594.4,605.6,592.1,604,590.7L604,590.7z"/>
				<line id="Path_00000063600838406158973900000009765257775479652026_" class="st2" x1="771.8" y1="641" x2="612" y2="576.3"/>
				<path id="Path_00000045612972167654741490000007986231575822464952_" class="st1" d="M773.2,637.6c1.4,0.6,2.3,1.9,2.3,3.4
					c0,1.5-0.9,2.9-2.3,3.5c-1.4,0.6-3,0.3-4.1-0.8c-1.1-1.1-1.4-2.7-0.8-4.1C769.1,637.7,771.3,636.8,773.2,637.6L773.2,637.6z"/>
				<path id="Path_00000026868144674148713470000002416331831691610518_" class="st1" d="M613.4,572.8c-1.4-0.6-3-0.3-4.1,0.8
					s-1.4,2.7-0.8,4.1c0.6,1.4,2,2.3,3.5,2.3c1.5,0,2.9-0.9,3.5-2.3C616.2,575.8,615.3,573.6,613.4,572.8L613.4,572.8z"/>
				<path id="Path_00000124129525565233235770000016592665953075702685_" class="st1" d="M788.8,565c2.1,0.1,3.6,1.9,3.5,4
					c-0.1,2.1-1.9,3.6-4,3.5c-2.1-0.1-3.6-1.9-3.5-4c0.1-1,0.5-1.9,1.3-2.6C786.8,565.3,787.8,565,788.8,565L788.8,565z"/>
				<path id="Path_00000076565829907846692760000017706022059237482627_" class="st1" d="M616.8,552.8c-2.1-0.1-3.9,1.4-4,3.5
					c-0.1,2.1,1.4,3.9,3.5,4s3.9-1.4,4-3.5c0.1-1-0.3-2-0.9-2.7S617.8,552.9,616.8,552.8L616.8,552.8z"/>
				
					<line id="Path_00000102502384260804862460000011042379441375749519_" class="st2" x1="782.1" y1="494.8" x2="614.8" y2="536.4"/>
				<path id="Path_00000098917560546186531350000015505654275356644004_" class="st1" d="M781.2,491.2c1.5-0.4,3,0.2,3.9,1.4
					c0.9,1.2,1,2.8,0.2,4.1c-0.8,1.3-2.3,2-3.8,1.8c-1.5-0.2-2.7-1.3-3.1-2.8C778,493.7,779.2,491.7,781.2,491.2z"/>
				<path id="Path_00000093151785869008830270000018078360596122981564_" class="st1" d="M613.9,532.7c-1.5,0.4-2.6,1.6-2.8,3.1
					c-0.2,1.5,0.5,3,1.8,3.8s3,0.7,4.2-0.2c1.2-0.9,1.8-2.5,1.4-3.9C617.9,533.4,615.9,532.2,613.9,532.7L613.9,532.7z"/>
				<path id="Path_00000172437934700394537110000010041337267438200977_" class="st1" d="M751.2,423.4c1.3-0.8,2.9-0.7,4.1,0.1
					c1.2,0.9,1.8,2.4,1.5,3.9s-1.5,2.6-3,2.8s-3-0.4-3.8-1.7c-0.5-0.8-0.7-1.9-0.5-2.8S750.4,423.9,751.2,423.4L751.2,423.4z"/>
				<path id="Path_00000071518188068902112210000014456188451018479295_" class="st1" d="M604.9,514.5c-1.8,1.1-2.3,3.4-1.2,5.2
					c1.1,1.8,3.4,2.3,5.2,1.2c1.8-1.1,2.3-3.4,1.2-5.2C609,514,606.7,513.4,604.9,514.5z"/>
				
					<line id="Path_00000101087396286975804240000001384308518762807734_" class="st2" x1="704.6" y1="370.5" x2="593.6" y2="502.4"/>
				<path id="Path_00000040571880722359943660000004513945223224123033_" class="st1" d="M701.7,368.1c1.3-1.6,3.7-1.8,5.3-0.5
					c1.6,1.3,1.8,3.7,0.5,5.3s-3.7,1.8-5.3,0.5C700.6,372,700.4,369.7,701.7,368.1z"/>
				<path id="Path_00000038393892004835399760000017055582438383029633_" class="st1" d="M590.7,500c-1,1.2-1.2,2.8-0.4,4.2
					s2.2,2.1,3.7,2c1.5-0.1,2.8-1.2,3.2-2.6c0.5-1.5,0-3-1.2-4C594.4,498.2,592.1,498.4,590.7,500L590.7,500z"/>
				<path id="Path_00000103262956902424507500000013043396569450967451_" class="st1" d="M637.6,330.8c0.6-1.4,1.9-2.3,3.4-2.3
					c1.5,0,2.9,0.9,3.5,2.3s0.3,3-0.8,4.1c-1.1,1.1-2.7,1.4-4.1,0.8C637.7,334.9,636.8,332.7,637.6,330.8L637.6,330.8z"/>
				<path id="Path_00000088833632800168705430000006227989969331112348_" class="st1" d="M572.8,490.6c-0.6,1.4-0.3,3,0.8,4.1
					c1.1,1.1,2.7,1.4,4.1,0.8c1.4-0.6,2.3-2,2.3-3.5c0-1.5-0.9-2.9-2.3-3.5C575.8,487.7,573.6,488.7,572.8,490.6L572.8,490.6z"/>
				
					<line id="Path_00000183945956656417192710000008052885354325127300_" class="st2" x1="599.6" y1="252.2" x2="594.6" y2="322.1"/>
				<path id="Path_00000031175192736057732550000004073521122107427755_" class="st1" d="M594.5,252.1c0.2-2.8,2.6-4.8,5.4-4.6
					c2.8,0.2,4.8,2.6,4.6,5.4c-0.2,2.8-2.6,4.8-5.4,4.6C596.4,257.3,594.3,254.9,594.5,252.1L594.5,252.1z"/>
				<path id="Path_00000181072283314904665730000002044988510167310760_" class="st1" d="M588.8,321.4c-0.2,3.2,2.2,6,5.4,6.2
					c3.2,0.2,6-2.2,6.2-5.4c0.2-3.2-2.2-6-5.4-6.2C591.8,315.8,589,318.2,588.8,321.4L588.8,321.4z"/>
				<line id="Path_00000042734994934197562180000000814491494519878037_" class="st2" x1="414.3" y1="281.5" x2="451.3" y2="341"/>
				<path id="Path_00000174585941796157641680000002243006200023342782_" class="st1" d="M410.1,284.4c-1.5-2.3-0.7-5.4,1.6-6.9
					c2.3-1.5,5.4-0.7,6.9,1.6c1.5,2.3,0.7,5.4-1.6,6.9C414.7,287.4,411.6,286.7,410.1,284.4L410.1,284.4z"/>
				<path id="Path_00000014635506842729993340000000469325296635717026_" class="st1" d="M446.2,343.8c1.7,2.7,5.3,3.6,8,1.9
					c2.7-1.7,3.6-5.3,1.9-8s-5.3-3.6-8-1.9c-1.3,0.8-2.2,2.1-2.6,3.6C445.1,340.9,445.4,342.5,446.2,343.8L446.2,343.8z"/>
				
					<line id="Path_00000156582305050419241990000015743334263553139350_" class="st2" x1="281.6" y1="414.1" x2="346.5" y2="440.4"/>
				<path id="Path_00000111158647423004419370000005705700384024841901_" class="st1" d="M279.9,418.8c-2.6-1-3.8-4-2.8-6.5
					s4-3.8,6.5-2.8c2.6,1,3.8,4,2.8,6.5C285.4,418.6,282.5,419.9,279.9,418.8L279.9,418.8z"/>
				<path id="Path_00000152944210961893820640000003560379478110408120_" class="st1" d="M344.1,445.7c3,1.2,6.4-0.2,7.6-3.2
					c1.2-3-0.2-6.4-3.2-7.6c-3-1.2-6.4,0.2-7.6,3.2C339.6,441.1,341.1,444.5,344.1,445.7L344.1,445.7z"/>
				
					<line id="Path_00000162337174533131577590000004769721112287355269_" class="st2" x1="252.2" y1="599.4" x2="320.2" y2="582.5"/>
				<path id="Path_00000064316406333174787840000003131449544896559033_" class="st1" d="M253.6,604.2c-2.7,0.7-5.4-1-6.1-3.7
					c-0.7-2.7,1-5.4,3.7-6.1c2.7-0.7,5.4,1,6.1,3.7c0.3,1.3,0.1,2.7-0.6,3.8C256,603,254.9,603.9,253.6,604.2L253.6,604.2z"/>
				<path id="Path_00000019644862295706225530000007839774961077945752_" class="st1" d="M321.3,588.2c3.1-0.8,5-3.9,4.2-7.1
					s-3.9-5-7.1-4.2s-5,3.9-4.3,7.1c0.4,1.5,1.3,2.8,2.6,3.6C318.2,588.4,319.8,588.6,321.3,588.2L321.3,588.2z"/>
				<line id="Path_00000106863750149716177340000002055702903860389782_" class="st2" x1="281.5" y1="689.7" x2="341" y2="652.7"/>
				<path id="Path_00000120520199273089615280000014493419858531808958_" class="st1" d="M284.4,693.8c-1.7,1.1-3.9,1-5.6-0.2
					c-1.6-1.2-2.4-3.2-2-5.2c0.5-2,2.1-3.5,4.1-3.8c2-0.3,4,0.6,5.1,2.3C287.4,689.3,286.7,692.4,284.4,693.8z"/>
				<path id="Path_00000136370245924535830080000013159135596830366598_" class="st1" d="M343.8,657.7c2.7-1.7,3.6-5.3,1.9-8
					c-1.7-2.7-5.3-3.6-8-1.9c-2.7,1.7-3.6,5.3-1.9,8C337.5,658.6,341.1,659.4,343.8,657.7z"/>
				
					<line id="Path_00000183966538728365884560000017550715372412055956_" class="st2" x1="337.3" y1="766.6" x2="382.4" y2="712.9"/>
				<path id="Path_00000039838251028996025290000009902522654349792912_" class="st1" d="M341.3,769.6c-1.8,2.1-4.9,2.4-7.1,0.6
					c-2.1-1.8-2.4-4.9-0.6-7.1s4.9-2.4,7.1-0.6c1,0.9,1.7,2.1,1.8,3.4C342.6,767.3,342.1,768.6,341.3,769.6z"/>
				<path id="Path_00000082367124325241149000000008119673076838335145_" class="st1" d="M386.7,716.9c2.1-2.5,1.8-6.1-0.7-8.2
					s-6.1-1.8-8.2,0.7c-2.1,2.5-1.8,6.1,0.7,8.2C380.9,719.7,384.6,719.4,386.7,716.9z"/>
				
					<line id="Path_00000166640132483498548070000017827331398307942320_" class="st2" x1="504.4" y1="851.8" x2="509.4" y2="781.9"/>
				<path id="Path_00000074401902299744428450000001139852118762957983_" class="st1" d="M509.4,851.9c-0.1,2-1.5,3.8-3.4,4.4
					c-1.9,0.6-4,0.1-5.4-1.5c-1.3-1.5-1.6-3.7-0.7-5.5s2.8-2.9,4.8-2.8C507.5,846.7,509.6,849.1,509.4,851.9L509.4,851.9z"/>
				<path id="Path_00000098208510628876262470000005132936778035467703_" class="st1" d="M515.1,782.6c0.2-2.4-1.1-4.6-3.2-5.6
					s-4.6-0.7-6.4,0.8s-2.5,4-1.7,6.2c0.7,2.2,2.8,3.8,5.1,4c1.5,0.1,3.1-0.4,4.2-1.4C514.3,785.6,515,784.1,515.1,782.6
					L515.1,782.6z"/>
				<line id="Path_00000029733475183852125410000003449054332271106715_" class="st2" x1="689.7" y1="822.5" x2="652.7" y2="763"/>
				<path id="Path_00000152240940491820581200000016778211470155407265_" class="st1" d="M693.8,819.6c1.1,1.7,1,3.9-0.2,5.6
					c-1.2,1.6-3.2,2.4-5.2,2c-2-0.5-3.5-2.1-3.8-4.1c-0.3-2,0.6-4,2.3-5.1c1.1-0.7,2.5-0.9,3.8-0.6
					C692,817.7,693.1,818.5,693.8,819.6L693.8,819.6z"/>
				<path id="Path_00000006679752699242240060000004828476326315745190_" class="st1" d="M657.7,760.2c-1.7-2.7-5.3-3.6-8-1.9
					c-2.7,1.7-3.6,5.3-1.9,8c1.7,2.7,5.3,3.6,8,1.9C658.6,766.5,659.4,762.9,657.7,760.2z"/>
				
					<line id="Path_00000060024035845505063230000004424797320376515998_" class="st2" x1="822.4" y1="689.9" x2="757.5" y2="663.5"/>
				<path id="Path_00000156556755059162896130000000153627456723161271_" class="st1" d="M824.1,685.1c2.6,1,3.8,4,2.8,6.5
					c-1,2.6-4,3.8-6.5,2.8c-2.6-1-3.8-4-2.8-6.5c0.5-1.2,1.5-2.2,2.7-2.7C821.4,684.6,822.8,684.6,824.1,685.1L824.1,685.1z"/>
				<path id="Path_00000085240286934838682320000001367888561197506462_" class="st1" d="M759.9,658.3c-3-1.2-6.4,0.2-7.6,3.2
					c-1.2,3,0.2,6.4,3.2,7.6c3,1.2,6.4-0.2,7.6-3.2c0.6-1.4,0.6-3,0-4.5S761.4,658.8,759.9,658.3z"/>
				
					<line id="Path_00000159464993695317857990000005639521866026038148_" class="st2" x1="851.8" y1="504.6" x2="783.8" y2="521.5"/>
				<path id="Path_00000005246761019485889860000010607642268093053842_" class="st1" d="M850.4,499.8c2.7-0.7,5.4,1,6.1,3.7
					s-1,5.4-3.7,6.1c-2.7,0.7-5.4-1-6.1-3.7c-0.3-1.3-0.1-2.7,0.6-3.8C848,500.9,849.1,500.1,850.4,499.8L850.4,499.8z"/>
				<path id="Path_00000151534316379988713070000000064232841762345901_" class="st1" d="M782.7,515.7c-3.1,0.8-5,3.9-4.3,7.1
					c0.8,3.1,3.9,5,7.1,4.3c3.1-0.8,5-3.9,4.3-7.1c-0.4-1.5-1.3-2.8-2.6-3.6C785.8,515.6,784.2,515.4,782.7,515.7L782.7,515.7z"/>
				<line id="Path_00000116933530738249446130000003251107048494508431_" class="st2" x1="766.7" y1="337.4" x2="721.6" y2="391"/>
				<path id="Path_00000113341706792218952590000017893485941818658226_" class="st1" d="M762.7,334.4c1.8-2.1,4.9-2.4,7.1-0.6
					s2.4,4.9,0.6,7.1c-1.8,2.1-4.9,2.4-7.1,0.6c-1-0.9-1.7-2.1-1.8-3.4S761.8,335.4,762.7,334.4L762.7,334.4z"/>
				<path id="Path_00000012435340332634657650000007793898456203482502_" class="st1" d="M717.3,387.1c-1.5,1.8-1.8,4.3-0.7,6.4
					c1.1,2.1,3.3,3.3,5.7,3.1c2.3-0.2,4.3-1.8,5.1-4s0-4.7-1.8-6.2C723.1,384.3,719.4,384.6,717.3,387.1L717.3,387.1z"/>
				<line id="Path_00000150075111086614576030000014873879776430444678_" class="st3" x1="587" y1="246.5" x2="581.3" y2="326.7"/>
				
					<line id="Path_00000183251159731543398110000014144215672830167689_" class="st3" x1="400.8" y1="284.3" x2="443.3" y2="352.5"/>
				
					<line id="Path_00000105417703158683677850000005409869716687375276_" class="st3" x1="272.3" y1="424.3" x2="346.8" y2="454.5"/>
				
					<line id="Path_00000050665122513114357740000002505656787346935447_" class="st3" x1="250.7" y1="613.1" x2="328.7" y2="593.7"/>
				<line id="Path_00000101102298755596658560000000471761833219364754_" class="st3" x1="344.1" y1="778.5" x2="395.8" y2="717"/>
				<line id="Path_00000139989238664055536600000003295365347716509056_" class="st3" x1="517" y1="857.4" x2="522.7" y2="777.3"/>
				
					<line id="Path_00000108993277209457128180000006907298182611980477_" class="st3" x1="703.2" y1="819.7" x2="660.7" y2="751.5"/>
				
					<line id="Path_00000082341970259303453450000008287408615956424877_" class="st3" x1="831.7" y1="679.7" x2="757.2" y2="649.5"/>
				
					<line id="Path_00000152241706310369730390000007527907294415540616_" class="st3" x1="853.3" y1="490.9" x2="775.3" y2="510.3"/>
				<line id="Path_00000157280443741522840760000002508206909454809510_" class="st3" x1="759.9" y1="325.5" x2="708.1" y2="387"/>
				<line id="Path_00000181082238942168180110000014117914598081119136_" class="st4" x1="562.5" y1="198.6" x2="560.3" y2="229"/>
				
					<line id="Path_00000165209848330764446930000007878073222763981713_" class="st4" x1="452.8" y1="212.7" x2="460.1" y2="242.3"/>
				<line id="Path_00000075150444754509630340000003486634179075723699_" class="st4" x1="352.8" y1="260" x2="368.9" y2="285.8"/>
				
					<line id="Path_00000042718533751311889770000009546848313779748029_" class="st4" x1="272.3" y1="335.8" x2="295.6" y2="355.4"/>
				
					<line id="Path_00000145760253161045323870000000787361697126112949_" class="st4" x1="219.2" y1="432.8" x2="247.4" y2="444.3"/>
				<line id="Path_00000160173150261817607210000015178150157062197150_" class="st4" x1="198.6" y1="541.5" x2="229" y2="543.7"/>
				
					<line id="Path_00000120522399616566495580000012558574019011021223_" class="st4" x1="212.7" y1="651.2" x2="242.3" y2="643.9"/>
				<line id="Path_00000029046948786578574100000017831444192975256752_" class="st4" x1="260" y1="751.2" x2="285.8" y2="735.1"/>
				
					<line id="Path_00000131353671419788425970000016605357183148177082_" class="st4" x1="335.8" y1="831.7" x2="355.4" y2="808.4"/>
				
					<line id="Path_00000052790323646755002670000000309273335631160511_" class="st4" x1="432.8" y1="884.8" x2="444.3" y2="856.6"/>
				
					<line id="Path_00000030453592995989748590000015694410431978059187_" class="st4" x1="541.5" y1="905.3" x2="543.7" y2="874.9"/>
				
					<line id="Path_00000070115034749171365550000011002706012146214074_" class="st4" x1="651.2" y1="891.3" x2="643.9" y2="861.7"/>
				<line id="Path_00000119812896813420361520000010248097300083031432_" class="st4" x1="751.2" y1="844" x2="735.1" y2="818.1"/>
				
					<line id="Path_00000175297713519455726110000009207981617729555330_" class="st4" x1="831.7" y1="768.2" x2="808.4" y2="748.5"/>
				
					<line id="Path_00000001658942081820549930000005623813723721336480_" class="st4" x1="884.8" y1="671.2" x2="856.6" y2="659.7"/>
				
					<line id="Path_00000067947641486470413590000001033507136804048042_" class="st4" x1="905.3" y1="562.5" x2="874.9" y2="560.3"/>
				
					<line id="Path_00000140001194840543808560000009793421842970984089_" class="st4" x1="891.3" y1="452.8" x2="861.7" y2="460.1"/>
				<line id="Path_00000035515532555480784850000013987057938715496842_" class="st4" x1="844" y1="352.8" x2="818.1" y2="368.9"/>
				
					<line id="Path_00000176017413598526809500000014891414338941799564_" class="st4" x1="768.2" y1="272.3" x2="748.5" y2="295.6"/>
				
					<line id="Path_00000135661924763517340780000008347752759692949937_" class="st4" x1="671.2" y1="219.2" x2="659.7" y2="247.4"/>
				<line id="Path_00000148635440137170426220000011980303658700820153_" class="st4" x1="625.4" y1="387.3" x2="613" y2="415.1"/>
				
					<line id="Path_00000075160471734654891940000018203992797728387214_" class="st4" x1="514.6" y1="375.6" x2="520.9" y2="405.4"/>
				<line id="Path_00000065796958365570063400000004673172984424137659_" class="st4" x1="418" y1="431.2" x2="440.7" y2="451.7"/>
				<line id="Path_00000057114200853087099160000001807709846770444694_" class="st4" x1="372.6" y1="533" x2="403" y2="536.2"/>
				
					<line id="Path_00000036221486742143700680000010587884790355720334_" class="st4" x1="395.7" y1="642.1" x2="422.2" y2="626.9"/>
				<line id="Path_00000145052139877298308550000003611698283695994528_" class="st4" x1="478.5" y1="716.7" x2="491" y2="688.9"/>
				
					<line id="Path_00000052784764956971604600000017030070645481274500_" class="st4" x1="589.4" y1="728.4" x2="583.1" y2="698.6"/>
				
					<line id="Path_00000180347011164908820580000007169649694037763738_" class="st4" x1="685.9" y1="672.7" x2="663.3" y2="652.3"/>
				<line id="Path_00000137094160936231920220000011734619605474787519_" class="st4" x1="731.3" y1="570.9" x2="701" y2="567.7"/>
				
					<line id="Path_00000178914306386885511460000013722473257394309514_" class="st4" x1="708.2" y1="461.9" x2="681.8" y2="477.1"/>
				<path id="Oval" class="st5" d="M632.5,629.6c44.2-44.2,44.2-115.8,0-160c-44.2-44.2-115.8-44.2-160,0
					c-44.2,44.2-44.2,115.8,0,160C516.6,673.8,588.3,673.8,632.5,629.6z"/>
				<path id="Oval_00000130619033008500774590000014313361401563333297_" class="st6" d="M805.5,802.6
					c139.7-139.7,139.7-366.3,0-506s-366.3-139.7-506,0s-139.7,366.3,0,506S665.8,942.3,805.5,802.6z"/>
			</g>
		</g>
	</g>
</g>
</svg>
